<svg width="32" height="32" viewBox="0 0 32 32" xmlns="http://www.w3.org/2000/svg"><g fill="none" fill-rule="evenodd"><path fill="#FFF" d="M0 0h32v32H0z"/><path d="M-5.57 16.05A5 5 0 1 0 .858 8.39a5 5 0 0 0-6.428 7.66zM4.2 34.157a5 5 0 1 0 6.428-7.66 5 5 0 0 0-6.428 7.66zm22.704-3.913a5 5 0 1 0 6.428-7.66 5 5 0 0 0-6.428 7.66z" fill="#E63B74"/><path d="M25.918 18.974a5 5 0 1 0 6.428-7.66 5 5 0 0 0-6.428 7.66z" fill="#327AC2"/><path d="M25.45 5.528a5 5 0 1 0 6.43-7.66 5 5 0 0 0-6.43 7.66z" fill="#F5AF22"/><path d="M10.297 18.92a5 5 0 1 0 6.428-7.66 5 5 0 0 0-6.428 7.66z" fill="#E63B74"/><path d="M2.09 22.478a4 4 0 1 0 5.143-6.128 4 4 0 0 0-5.142 6.128zM.612 5.572A4 4 0 1 0 5.754-.556 4 4 0 0 0 .612 5.572z" fill="#327AC2"/><path d="M18.9 11.78a4 4 0 1 0 5.142-6.13 4 4 0 0 0-5.142 6.13zm-.3 12.803a4 4 0 1 0 5.143-6.13 4 4 0 0 0-5.143 6.13z" fill="#F5AF22"/><path d="M10.077 8.293a4 4 0 1 0 5.143-6.13 4 4 0 0 0-5.143 6.13zm5.628 27.235a5 5 0 1 0 6.427-7.66 5 5 0 0 0-6.427 7.66z" fill="#327AC2"/><path d="M4.046 12.37a3 3 0 1 0 3.856-4.597 3 3 0 0 0-3.856 4.597z" fill="#F5AF22"/><path d="M17.394 2.684a3 3 0 1 0 3.857-4.596 3 3 0 0 0-3.855 4.596z" fill="#E63B74"/><path d="M-2.41 27.84a3 3 0 1 0 3.858-4.596A3 3 0 0 0-2.41 27.84zm13.915-1.752a3 3 0 1 0 3.856-4.596 3 3 0 0 0-3.854 4.596z" fill="#F5AF22"/></g></svg>