<svg width="75" height="20" viewBox="0 0 75 20" xmlns="http://www.w3.org/2000/svg"><title>logo</title><path d="M25.976 1.934l-.002-.082a1.813 1.813 0 0 1 3.629 0l-.003.082h.003v4.414c3.802-.718 8.267 1.724 8.164 6.793-.103 5.062-5.167 7.058-10.178 6.844v-.02a1.813 1.813 0 0 1-1.615-1.801l.002-.083h-.002V1.934h.002zM0 1.84v-.016a1.814 1.814 0 0 1 3.629 0v7.426L13.054.655c.09-.103.192-.197.307-.28l.005-.004.014-.01a1.812 1.812 0 1 1 2.09 2.963l-.014.01-6.68 6.091c1.143 1.589 3.59 4.976 4.04 5.5.716.832 1.98 2.492 3.287 2.006v.002a1.319 1.319 0 0 1 1.786 1.232c0 .486-.263.912-.656 1.138l-.016.01-.018.01-.009.005c-.651.375-3.44 1.63-5.764-1.005-1.641-1.861-4.2-5.102-5.289-6.492L3.63 14.118V18.173a1.814 1.814 0 0 1-3.629 0V1.84zm51.84 14.77v.002c-2.723 3.537-6.666 3.374-6.666 3.374-4.15-.001-6.848-2.93-6.85-6.509 0-2.248.568-4.065 2.51-5.767 2.29-2.007 6.465-2.068 8.25.303.796 1.056 1.433 3.369-.425 5.148-1.425 1.364-4.58 2.295-6.35 2.73.654.93 1.684 1.382 3.268 1.382 1.668 0 3.142-1.192 4.25-2.365.036-.043.073-.083.113-.12l.013-.014.001.001a1.319 1.319 0 0 1 1.885 1.835zM67.858 6.565a1.813 1.813 0 0 1 3.237 1.279h.007v7.745c0 .766.05 1.188.517 1.37.398.155 1.021-.095 1.296-.223.043-.025.089-.047.136-.067l.002-.001a1.319 1.319 0 0 1 1.826 1.217c0 .482-.259.903-.646 1.132v.001s-2.65 1.915-5.103.336l-.105-.07c-4.564 2.102-9.978-.74-9.844-6.483.116-4.985 4.661-7.222 8.677-6.236zm-15.19-4.752a1.814 1.814 0 0 1 3.629 0v13.726c0 .767.048 1.189.516 1.371.398.155 1.021-.095 1.295-.223.045-.025.09-.048.137-.068h.002a1.319 1.319 0 0 1 1.826 1.217c0 .482-.259.903-.646 1.132v.001s-2.65 1.915-5.103.335c-1.448-.932-1.655-2.394-1.655-3.765l-.002-13.726h.001zm-34.637 7.58a1.814 1.814 0 0 1 3.628 0V15.538c0 .767.049 1.189.516 1.371.397.155 1.02-.094 1.295-.223.045-.025.09-.048.138-.068h.001a1.319 1.319 0 0 1 1.827 1.217c0 .482-.26.903-.646 1.132v.001s-2.651 1.915-5.104.335c-1.448-.932-1.655-2.394-1.655-3.765l-.001-6.147zm49.443-.011c-1.834-.077-4.745.305-4.857 3.478-.106 3.013 2.774 4.62 4.903 3.664a8.576 8.576 0 0 1-.045-.935l-.001-6.207zm-37.871 7.372V9.465c2.442-.441 4.868.585 4.767 3.493-.083 2.41-2.297 3.47-4.767 3.795zM45.515 12c1.033-.467 1.154-1.75.52-2.32-.63-.566-2.085-.488-3.274.511-.708.595-1.285 1.666-1.27 3.012 1.455-.382 3.14-.804 4.024-1.203zm-23.69-7.18a1.978 1.978 0 1 1-3.958-.002 1.978 1.978 0 0 1 3.957.002z" fill="#327AC2" fill-rule="evenodd"/></svg>